<svg xmlns="http://www.w3.org/2000/svg" width="100%" height="100%" viewBox="0 0 75 24" fill="none" preserveAspectRatio="xMidYMid meet" aria-hidden="true" role="img">
                  <path d="M46.7434 17.4453C48.0842 17.4453 49.0712 16.7639 49.0712 15.2908V4.47872C49.0712 3.55201 49.8216 2.80006 50.7484 2.7986L54.0087 2.79419C54.9398 2.79419 55.6933 3.5476 55.6918 4.47872L55.6756 16.1559C55.6654 20.9627 53.0233 23.0555 48.1254 23.0555C47.7347 23.0555 47.2192 23.0408 46.6876 23.0071C46.3028 22.9836 46.0017 22.6634 46.0017 22.2772V18.1811C46.0017 17.7758 46.3336 17.4453 46.7375 17.4453H46.7434Z" fill="currentColor"></path>
                  <path d="M29.7275 10.7616C29.7275 6.17793 33.7208 2.79419 38.6701 2.79419C43.6194 2.79419 47.5818 6.17793 47.5818 10.7616C47.5818 15.3452 43.5886 18.7994 38.6701 18.7994C33.7516 18.7994 29.7275 15.3452 29.7275 10.7616ZM41.2725 10.8041C41.2725 9.24592 40.1226 8.02401 38.6716 8.02401C37.2205 8.02401 36.0353 9.24592 36.0353 10.8041C36.0353 12.3624 37.1985 13.5608 38.6716 13.5608C40.1446 13.5608 41.2725 12.3389 41.2725 10.8041Z" fill="currentColor"></path>
                  <path d="M21.5237 11.3408L21.067 17.0024C21.0288 17.4826 21.4077 17.8924 21.888 17.8924H28.6569C29.1739 17.8924 29.5631 17.4209 29.4662 16.9128L26.8329 3.15604C26.3277 0.513962 22.8514 -0.149862 21.4077 2.11918L16.8065 9.34783L16.5363 6.25928C16.3042 3.60839 12.9924 2.55096 11.2683 4.57622L1.08912 16.5339C0.633839 17.0685 1.01421 17.8924 1.71622 17.8924H8.09452C8.52923 17.8924 8.93458 17.6677 9.16369 17.2976L11.9115 12.8726L13.0996 15.9861C13.9177 18.1303 16.8168 18.4504 18.0842 16.5368L21.5252 11.3378V11.3408H21.5237Z" fill="currentColor"></path>
                  <path d="M57.0371 10.7616C57.0371 6.17793 61.0303 2.79419 65.9797 2.79419C70.929 2.79419 74.8914 6.17793 74.8914 10.7616C74.8914 15.3452 70.8981 18.7994 65.9797 18.7994C61.0612 18.7994 57.0371 15.3452 57.0371 10.7616ZM68.5821 10.8041C68.5821 9.24592 67.4321 8.02401 65.9811 8.02401C64.5301 8.02401 63.3449 9.24592 63.3449 10.8041C63.3449 12.3624 64.5081 13.5608 65.9811 13.5608C67.4542 13.5608 68.5821 12.3389 68.5821 10.8041Z" fill="currentColor"></path>
                </svg>
